HIERARCHY
ROOT hips
{
  OFFSET 0 9.313263304106702 1.2146308026317778
  CHANNELS 6 Xposition Yposition Zposition Yrotation Xrotation Zrotation
  JOINT spine
  {
    OFFSET -6.402521e-31 0.5173342420023708 0
    CHANNELS 3 Yrotation Xrotation Zrotation
    JOINT chest
    {
      OFFSET 0 1.130544299341115 0
      CHANNELS 3 Yrotation Xrotation Zrotation
      JOINT upperChest
      {
        OFFSET 0 1.0863555061129995 0
        CHANNELS 3 Yrotation Xrotation Zrotation
        JOINT neck
        {
          OFFSET 0 1.3773706506454462 0
          CHANNELS 3 Yrotation Xrotation Zrotation
          JOINT head
          {
            OFFSET 0 0.7374408940073979 0
            CHANNELS 3 Yrotation Xrotation Zrotation
            JOINT leftEye
            {
              OFFSET 0.25066580148932727 0.6408406698778757 0.15963719178883284
              CHANNELS 3 Yrotation Xrotation Zrotation
              End Site
              {
                OFFSET 0.25066580148932727 0.6408406698778757 0.15963719178883284
              }
            }
            JOINT rightEye
            {
              OFFSET -0.25066576739704244 0.6408406384191823 0.15963727561643756
              CHANNELS 3 Yrotation Xrotation Zrotation
              End Site
              {
                OFFSET -0.25066576739704244 0.6408406384191823 0.15963727561643756
              }
            }
          }
        }
        JOINT leftShoulder
        {
          OFFSET 0.3761817444281191 1.0539491987447769 0
          CHANNELS 3 Yrotation Xrotation Zrotation
          JOINT leftUpperArm
          {
            OFFSET 0.8702844380000002 0 0
            CHANNELS 3 Yrotation Xrotation Zrotation
            JOINT leftLowerArm
            {
              OFFSET 2.198527310000323 0 0
              CHANNELS 3 Yrotation Xrotation Zrotation
              JOINT leftHand
              {
                OFFSET 2.146852313968281 0 0
                CHANNELS 3 Yrotation Xrotation Zrotation
                JOINT leftIndexProximal
                {
                  OFFSET 0.6585177834681599 0.07380250427007962 0.18382213159631788
                  CHANNELS 3 Yrotation Xrotation Zrotation
                  JOINT leftIndexIntermediate
                  {
                    OFFSET 0.3323021288626682 -0.009606893929485771 -0.012820872253340998
                    CHANNELS 3 Yrotation Xrotation Zrotation
                    JOINT leftIndexDistal
                    {
                      OFFSET 0.2045908926985518 -0.0071133989147997845 -0.006828784783599051
                      CHANNELS 3 Yrotation Xrotation Zrotation
                      End Site
                      {
                        OFFSET 0.2045908926985518 -0.0071133989147997845 -0.006828784783599051
                      }
                    }
                  }
                }
                JOINT leftLittleProximal
                {
                  OFFSET 0.6110054258835662 0.07380246363125398 -0.29175655876064077
                  CHANNELS 3 Yrotation Xrotation Zrotation
                  JOINT leftLittleIntermediate
                  {
                    OFFSET 0.3144281999999998 -2.5124724523095665e-9 1.8658118799974588e-7
                    CHANNELS 3 Yrotation Xrotation Zrotation
                    JOINT leftLittleDistal
                    {
                      OFFSET 0.18116185580251631 0.002815456192251098 0.0034826415518049436
                      CHANNELS 3 Yrotation Xrotation Zrotation
                      End Site
                      {
                        OFFSET 0.18116185580251631 0.002815456192251098 0.0034826415518049436
                      }
                    }
                  }
                }
                JOINT leftMiddleProximal
                {
                  OFFSET 0.6637478005691111 0.07380246480054087 0.02046981859247815
                  CHANNELS 3 Yrotation Xrotation Zrotation
                  JOINT leftMiddleIntermediate
                  {
                    OFFSET 0.3705733999999994 -2.9611069152224445e-9 9.35054791928458e-8
                    CHANNELS 3 Yrotation Xrotation Zrotation
                    JOINT leftMiddleDistal
                    {
                      OFFSET 0.22861063500000056 -1.82673876025774e-9 -1.6740782024515788e-7
                      CHANNELS 3 Yrotation Xrotation Zrotation
                      End Site
                      {
                        OFFSET 0.22861063500000056 -1.82673876025774e-9 -1.6740782024515788e-7
                      }
                    }
                  }
                }
                JOINT leftRingProximal
                {
                  OFFSET 0.6561845547265777 0.07380246406440083 -0.13588087571513918
                  CHANNELS 3 Yrotation Xrotation Zrotation
                  JOINT leftRingIntermediate
                  {
                    OFFSET 0.3437531000000005 -2.746796123886952e-9 1.4935781944558357e-7
                    CHANNELS 3 Yrotation Xrotation Zrotation
                    JOINT leftRingDistal
                    {
                      OFFSET 0.1983118991198174 -0.002467117924596085 -0.004538141969590015
                      CHANNELS 3 Yrotation Xrotation Zrotation
                      End Site
                      {
                        OFFSET 0.1983118991198174 -0.002467117924596085 -0.004538141969590015
                      }
                    }
                  }
                }
                JOINT leftThumbProximal
                {
                  OFFSET 0.09767004258864787 -0.14930060425447422 -0.07008212897521154
                  CHANNELS 3 Yrotation Xrotation Zrotation
                  JOINT leftThumbIntermediate
                  {
                    OFFSET 0.36682123028154767 -0.015768465060082004 0.28693641268151077
                    CHANNELS 3 Yrotation Xrotation Zrotation
                    JOINT leftThumbDistal
                    {
                      OFFSET 0.21091084272403915 -0.016756648201192714 0.1933767059105508
                      CHANNELS 3 Yrotation Xrotation Zrotation
                      End Site
                      {
                        OFFSET 0.21091084272403915 -0.016756648201192714 0.1933767059105508
                      }
                    }
                  }
                }
              }
            }
          }
        }
        JOINT rightShoulder
        {
          OFFSET -0.37618174442811925 1.0539491987447769 0
          CHANNELS 3 Yrotation Xrotation Zrotation
          JOINT rightUpperArm
          {
            OFFSET -0.870284438 0 0
            CHANNELS 3 Yrotation Xrotation Zrotation
            JOINT rightLowerArm
            {
              OFFSET -2.1985273100003235 0 0
              CHANNELS 3 Yrotation Xrotation Zrotation
              JOINT rightHand
              {
                OFFSET -2.1468523139682802 0 0
                CHANNELS 3 Yrotation Xrotation Zrotation
                JOINT rightIndexProximal
                {
                  OFFSET -0.6585177834681599 0.07380250427007962 0.18382213159631788
                  CHANNELS 3 Yrotation Xrotation Zrotation
                  JOINT rightIndexIntermediate
                  {
                    OFFSET -0.3323021288626682 -0.009606893929485771 -0.012820872253340998
                    CHANNELS 3 Yrotation Xrotation Zrotation
                    JOINT rightIndexDistal
                    {
                      OFFSET -0.2045908926985518 -0.0071133989147997845 -0.006828784783599051
                      CHANNELS 3 Yrotation Xrotation Zrotation
                      End Site
                      {
                        OFFSET -0.2045908926985518 -0.0071133989147997845 -0.006828784783599051
                      }
                    }
                  }
                }
                JOINT rightLittleProximal
                {
                  OFFSET -0.6110054258835662 0.07380246363125398 -0.29175655876064077
                  CHANNELS 3 Yrotation Xrotation Zrotation
                  JOINT rightLittleIntermediate
                  {
                    OFFSET -0.3144281999999998 -2.5124724523095665e-9 1.8658118799974588e-7
                    CHANNELS 3 Yrotation Xrotation Zrotation
                    JOINT rightLittleDistal
                    {
                      OFFSET -0.18116185580251631 0.002815456192251098 0.0034826415518049436
                      CHANNELS 3 Yrotation Xrotation Zrotation
                      End Site
                      {
                        OFFSET -0.18116185580251631 0.002815456192251098 0.0034826415518049436
                      }
                    }
                  }
                }
                JOINT rightMiddleProximal
                {
                  OFFSET -0.6637478005691111 0.07380246480054087 0.02046981859247815
                  CHANNELS 3 Yrotation Xrotation Zrotation
                  JOINT rightMiddleIntermediate
                  {
                    OFFSET -0.3705733999999994 -2.9611069152224445e-9 9.35054791928458e-8
                    CHANNELS 3 Yrotation Xrotation Zrotation
                    JOINT rightMiddleDistal
                    {
                      OFFSET -0.22861063500000056 -1.82673876025774e-9 -1.6740782024515788e-7
                      CHANNELS 3 Yrotation Xrotation Zrotation
                      End Site
                      {
                        OFFSET -0.22861063500000056 -1.82673876025774e-9 -1.6740782024515788e-7
                      }
                    }
                  }
                }
                JOINT rightRingProximal
                {
                  OFFSET -0.6561845547265777 0.07380246406440083 -0.13588087571513918
                  CHANNELS 3 Yrotation Xrotation Zrotation
                  JOINT rightRingIntermediate
                  {
                    OFFSET -0.3437531000000005 -2.746796123886952e-9 1.4935781944558357e-7
                    CHANNELS 3 Yrotation Xrotation Zrotation
                    JOINT rightRingDistal
                    {
                      OFFSET -0.1983118991198174 -0.002467117924596085 -0.004538141969590015
                      CHANNELS 3 Yrotation Xrotation Zrotation
                      End Site
                      {
                        OFFSET -0.1983118991198174 -0.002467117924596085 -0.004538141969590015
                      }
                    }
                  }
                }
                JOINT rightThumbProximal
                {
                  OFFSET -0.09767004258864787 -0.14930060425447422 -0.07008212897521154
                  CHANNELS 3 Yrotation Xrotation Zrotation
                  JOINT rightThumbIntermediate
                  {
                    OFFSET -0.36682123028154767 -0.015768465060082004 0.28693641268151077
                    CHANNELS 3 Yrotation Xrotation Zrotation
                    JOINT rightThumbDistal
                    {
                      OFFSET -0.21091084272403915 -0.016756648201192714 0.1933767059105508
                      CHANNELS 3 Yrotation Xrotation Zrotation
                      End Site
                      {
                        OFFSET -0.21091084272403915 -0.016756648201192714 0.1933767059105508
                      }
                    }
                  }
                }
              }
            }
          }
        }
      }
    }
  }
  JOINT leftUpperLeg
  {
    OFFSET 0.7715603 -0.3993844658041501 0
    CHANNELS 3 Yrotation Xrotation Zrotation
    JOINT leftLowerLeg
    {
      OFFSET 0 -3.529830000249343 0
      CHANNELS 3 Yrotation Xrotation Zrotation
      JOINT leftFoot
      {
        OFFSET 0 -4.154939295409685 0.004208579085223096
        CHANNELS 3 Yrotation Xrotation Zrotation
        JOINT leftToes
        {
          OFFSET 0 -0.6353414391261847 1.10414981190622
          CHANNELS 3 Yrotation Xrotation Zrotation
          End Site
          {
            OFFSET 0 -0.6015820691747853 1.10414981190622
          }
        }
      }
    }
  }
  JOINT rightUpperLeg
  {
    OFFSET -0.7715603 -0.3993844658041501 0
    CHANNELS 3 Yrotation Xrotation Zrotation
    JOINT rightLowerLeg
    {
      OFFSET 0 -3.529830000249343 0
      CHANNELS 3 Yrotation Xrotation Zrotation
      JOINT rightFoot
      {
        OFFSET 0 -4.154939295409685 0.004208579085223096
        CHANNELS 3 Yrotation Xrotation Zrotation
        JOINT rightToes
        {
          OFFSET 0 -0.6353414391261847 1.10414981190622
          CHANNELS 3 Yrotation Xrotation Zrotation
          End Site
          {
            OFFSET 0 -0.6015820691747853 1.10414981190622
          }
        }
      }
    }
  }
}
MOTION
Frames: 4
Frame Time: 0.03333333333333333
0.04136250777678056 8.785330165516244 1.3490816771771352 1.5797092829288677 -0.892728558396513 -5.383772113592304 -1.1978383989233798 1.2977550159472055 2.9896573365443597 1.1154029669988685 1.3545619764657892 11.820358418710224 0 0 0 -0.3047458179707543 1.04529367920474 -2.169549994959871 0.5443834788352198 1.584858917863276 -8.125435708444469 0 0 0 0 0 0 -13.789959584804192 3.479370104127081 -5.89784405915939 3.52300018849512 4.025226638288332 -83.43061524307483 -14.506746957170805 -0.000022025511137977575 -0.000014421640082812374 4.171883131787129 -27.530157386785902 -11.347226161711767 4.666380645444113 0.33774699312980627 -7.816537754313277 2.8351999156350214 0.38900245885814383 -20.547114369519495 0.8092487405373384 0.034519514684355566 -10.169316315504062 16.293311382862054 5.4943179841047405 -35.3788586865468 3.991804939770645 1.5251644502383888 -45.54374426781473 2.8329939218232987 0.556864378330481 -20.49878293715989 8.766890454557133 0.9009433474532728 -15.69263023595642 3.994246507183008 0.9161747700502665 -33.336468330580416 1.4912556719165722 0.17075179369398602 -12.25998087036927 11.684959414571294 2.5032345864207475 -26.391617397775 3.8883353068553843 1.7071584789867047 -40.09945146752023 1.8351272484661125 0.5448165417730708 -19.326712050349666 0.2122273083707712 18.639553607343373 11.135286932693372 31.896628334663173 0.8128117164499986 -2.7315699328247383 8.678220465641692 1.7973450702350469 -0.18778116836349917 3.3346825112705027 4.500527307145343 5.733532287805034 0.6560122157212323 -1.2196356149525407 67.33146522447701 17.73678636684066 -0.0000017368393360085938 0.00001071970078730459 -9.297203540478497 -11.050091694306278 11.936413353067788 -4.690092828683251 0.3409807709000091 7.816579914947753 -2.795136825268802 0.38291814304428995 20.547212306112108 -0.22654210389718943 -0.19321329104638565 13.844664509470842 -16.052849848949347 5.324145804467828 35.40035359275211 -4.028960989359299 1.2635333028176197 45.5500536035249 -0.31194577346741176 -0.7652600181465803 22.12468105923817 -8.825802907462103 0.9174619986146414 15.691761831640664 -3.9010012424197886 0.8949642232957595 33.33695448068567 -1.7259531640086012 0.21556363996871047 15.891678481293257 -11.668420346147586 2.4950044916024594 26.392387437778464 -3.912374125921864 1.7116463096287666 40.099262748318296 0.023252121884977304 -0.1516906878849452 17.815303218253298 -0.3228602378624939 18.66289201067301 -11.194169917592873 -31.782239738182028 0.7795889227250741 2.7762318422125625 -7.715278463042933 1.639316441436598 1.0072190445916722 11.457750448452718 -19.196160435238912 12.123720805964407 10.230246452570004 21.72815134951175 6.161533178713478 3.3522205115731896 -1.4885125059922546 -8.868882962587966 0.000007773450663727875 -0.44197226397234274 -0.0000026937102997692926 -4.96877157746544 -1.5976778298850602 10.693189261217482 -5.207040054951608 12.395586489902911 2.1476092321854123 1.0250610603387202 -9.84380273535096 -7.931746773878057 -0.0000015296125975919661 -0.548658538018035 -0.0000010200290634858126
0.04303515634753487 8.786481510509143 1.3484829620668766 1.6093715733268976 -0.893025867808041 -5.379407765793653 -0.9753881576609906 1.31549453500284 2.9169312502030933 1.2739926850391101 1.358073250579328 11.673502110388696 0 0 0 -0.30481402038263167 1.0609882631414067 -2.161232110452709 0.3498215828335237 2.0794873258154194 -8.08221201032965 0 0 0 0 0 0 -13.783778157372069 3.4797308481854836 -5.901523311654826 3.5228805871711 4.015635220511164 -83.44065092840962 -14.49434799707284 -0.00000902275140833345 -0.0000028542552155828093 4.207946339262727 -27.605034284031273 -11.373936009413713 4.66639638817452 0.3377525694358192 -7.816554290036267 2.857435436503938 0.3974160893531143 -20.782240807537395 0.8328761436390547 0.03792687596220009 -10.404585729259326 16.29330054111776 5.494325274675861 -35.378900564538725 4.009173826999973 1.5412790073587617 -45.77890461599448 2.854306443703154 0.5673803341930722 -20.73386649950917 8.766896882453471 0.9009395049968381 -15.692670821809454 4.014140704730699 0.9287751139645084 -33.57149753056695 1.5140809376165052 0.17647511828924742 -12.495212118060518 11.68494951658577 2.5032264678240232 -26.391637266618623 3.9047768082571483 1.7240724867029817 -40.33447306112283 1.8562850725061086 0.5546999069447001 -19.561811289683394 0.21224351280628992 18.639555409412836 11.135326339886547 31.896680468400806 0.8128203617780952 -2.731560977486205 8.678234820687853 1.7973538257225123 -0.18777322707235553 3.327023715253955 4.500444234962579 5.731669540031861 0.6442857997467487 -1.2337836457086055 67.33981549847786 17.73598284011165 0.000007866788223797378 -0.000016812602981274304 -9.340907760013483 -11.071645169307123 11.985704443469869 -4.617420073812716 0.3310959030871006 7.734893766379579 -2.786733473489602 0.37977429208099056 20.458577777955455 -0.21728400049564486 -0.19353065652642357 13.755998955442914 -16.096604074588583 5.347445933269618 35.30333675356682 -4.02192687196762 1.2578260453369796 45.46047793920583 -0.3018635711385322 -0.7647292971602002 22.03598821673618 -8.817949483703675 0.912324187593928 15.603331373906267 -3.8934456342121297 0.890297837386374 33.248254122823795 -1.7174076987242166 0.2131240047235258 15.802999668948 -11.697531278659856 2.500460806681271 26.2998075376141 -3.906125214301594 1.7052340737688694 40.010136233744916 0.03231968070231991 -0.1525276024509725 17.726611070999883 -0.26132185245952266 18.652480343492687 -11.156577607633205 -31.60462574122325 0.7220352595127609 2.8159145082199517 -7.65554403374455 1.6250421713607603 1.0215652147503054 11.465308073788888 -19.168878777608775 12.094192186099121 10.20454832040056 21.664938521034482 6.1483566079578695 3.3490349515427935 -1.4584600879131318 -8.845656561009644 -0.000016838101391527224 -0.4365277761973087 0.0000024263874601713196 -4.966854562751521 -1.5609112555116158 10.678359903387664 -5.153590055483874 12.30859583299239 2.1644505738619317 0.9476829071745713 -9.79818041683852 -7.918839496648167 0.000002312647569106523 -0.5462257056867447 -0.0000020865482065376173
0.0443038208918138 8.787314675071022 1.3480438112999837 1.6797543400748154 -0.8937567335341994 -5.3679001440310765 -0.7494250177521297 1.3337518139239366 2.835672949486293 1.4347674770625078 1.3622610163472118 11.518328553124627 0 0 0 -0.3046284869927849 1.0939190130053635 -2.1428718921695973 -0.0085547733864843 3.112017266289431 -7.96042005857808 0 0 0 0 0 0 -13.768729108090536 3.480640300179887 -5.910290871366884 3.5251828991303236 3.9916368421676522 -83.46500793483314 -14.45952681360963 -0.000022644318228359163 0.000012613303506008579 4.295281439460795 -27.78579588109605 -11.437454920022926 4.666397664612089 0.3377551841630417 -7.816559365169733 2.90672498379888 0.4164425948481085 -21.304719951291823 0.8853161725960083 0.04581879480604663 -10.92732400043384 16.293302187651395 5.494335996104139 -35.37891491569763 4.047513622654323 1.5773246986154834 -46.301395326841444 2.901531321962852 0.5910805409624567 -21.2561863733138 8.7668994141625 0.900936516419614 -15.692664965677722 4.058149693740651 0.9570272148622244 -34.0937002710596 1.5647097801664331 0.18950136935468898 -13.017933231678219 11.684955374736294 2.503218562874629 -26.39163268506004 3.9410131313227876 1.7618837662410067 -40.85663675574625 1.9031922162257562 0.5769671961759466 -20.084235084735145 0.21224644187654026 18.639546399065722 11.135324759758639 31.896685172796264 0.8128347706582973 -2.7315669477119084 8.678222998885213 1.7973508360438613 -0.18777615000136555 3.3085149327756085 4.500246831514761 5.727055834110391 0.6147891302659694 -1.2670578995098898 67.35899307254233 17.732996545683104 -0.000004201341544038134 0.000013569802656473156 -9.448511977652172 -11.12774158403165 12.105009310694328 -4.453076189176268 0.30948634088471727 7.550184075961126 -2.767731697831295 0.37275825585014954 20.258267369538117 -0.19634435921464746 -0.19422287081326953 13.555530784900602 -16.195798452325622 5.399561777179653 35.08396291269315 -4.005981504516617 1.2449500955007788 45.25800737172054 -0.27906126967813283 -0.7634829436084676 21.83552563508762 -8.800146378206414 0.900783565309951 15.403437024978215 -3.8763463489294154 0.8797425485277747 33.04777731917115 -1.69811093297493 0.20768317541322273 15.602636690266833 -11.763395472135162 2.5123891908567892 26.090542796561422 -3.8919913615229498 1.6907978927742382 39.808686163164566 0.052806852822881785 -0.15435884676754202 17.526151388457887 -0.12856750106150414 18.63007138251173 -11.07555802631277 -31.22337829020516 0.5980865578611949 2.900531259446955 -7.527312583072989 1.594325574574429 1.052300679614125 11.466319788919353 -19.15061398120626 12.05115368684672 10.147424171990558 21.61173346511603 6.134406411099647 3.344355249177166 -1.429761509920425 -8.823752545737722 -0.000028701832303915585 -0.4240702537104559 0.0000032818624326433782 -4.979460123158246 -1.5366415571453143 10.66688454306347 -5.035852070815817 12.249468335789578 2.1891478801257533 0.778030764013224 -9.77406905379171 -7.907472004598833 0.0000014804789747411198 -0.540397584746698 -0.0000037923974092249102
0.04514241083101793 8.787805383855645 1.3477662839460034 1.7974882771556693 -0.8950490774042621 -5.348021197016808 -0.522626732374185 1.352461747629263 2.7444378027240988 1.5957269918443138 1.3672572229058524 11.354776145394675 0 0 0 -0.30371128020859917 1.1425562360684114 -2.112593771028894 -0.46925572505929475 4.67221862846243 -7.738573356956738 0 0 0 0 0 0 -13.743332726405132 3.4822032424208484 -5.925094282438534 3.530329702469811 3.950857466730928 -83.5064433017688 -14.398538964112241 -0.000015544641118185486 0.000010177205025284228 4.44378807735196 -28.090350618234012 -11.544956936992527 4.666351860502199 0.33773175834162467 -7.816512760034592 2.984866857893875 0.4476949076699096 -22.136936973226884 0.9687058153873636 0.0593928543794505 -11.760028721036791 16.293334712884512 5.494338140389818 -35.37883115970994 4.107937958052184 1.6355197605469551 -47.1336530970505 2.9762979153142184 0.6297073466746661 -22.088208213358197 8.766896882453471 0.9009331009027894 -15.692626023930337 4.127730791326401 1.0028981119506715 -34.92555158235884 1.6450817607593564 0.2112101645922978 -13.850546003077817 11.684977681343526 2.5032311680642256 -26.39160057944753 3.9980280253619482 1.822768193922595 -41.688389975397214 1.9774934126806034 0.6133318050541707 -20.916442907390792 0.2122034600011332 18.63954459699636 11.135298425625768 31.896556288308307 0.8127976811334366 -2.731607409505047 8.678199684153105 1.79732734571177 -0.18778971025648597 3.2772796915009 4.499921822484102 5.719226234146996 0.5644363213528192 -1.3227764860557467 67.39098375745745 17.727449530132393 -1.6617524194220408e-7 -0.0000028945378311788558 -9.631192972976129 -11.22374004783948 12.306572648009865 -4.186882057914836 0.2767004431663461 7.25120167415057 -2.7369346865801107 0.3615572626680075 19.93413553471706 -0.1624709789031659 -0.19517300630534595 13.23122317931739 -16.357184333036237 5.482216187821663 34.72862149532355 -3.98007506640774 1.2242096802014943 44.93036917805409 -0.24216420571922037 -0.7612889246369478 21.511157933773244 -8.771216480549525 0.8821918343890869 15.079969213852662 -3.8486012387915634 0.8628282440174794 32.72338631087268 -1.666814400551176 0.1990105948085311 15.278389582287076 -11.87021587517694 2.530531303168565 25.751828108957042 -3.869008904071126 1.6675653794981582 39.48273272066573 0.08600208237773996 -0.15718902348356306 17.201795467933092 0.08650190556193121 18.59349354583503 -10.944476040461925 -30.607503465947403 0.39651669727169186 3.0355056066471393 -7.3200768286141145 1.544555697960756 1.10185481329662 11.459987986639199 -19.142078810686062 11.992220096301235 10.054451928648346 21.56866278750957 6.1191138886135406 3.3369977971877893 -1.4019276749348828 -8.80267530832418 0.0000030813981675305608 -0.4038554076173843 -1.215710732558747e-7 -5.008459979519677 -1.5246122900339687 10.660533017478144 -4.8489093932858935 12.217664501892479 2.2218566205477512 0.5063270556880146 -9.7721414331945 -7.8989960999031 -0.000003227862319149482 -0.5305864432692979 -0.0000010145308072184035
